<mxfile host="app.diagrams.net" modified="2023-10-08T19:50:02.202Z" agent="Mozilla/5.0 (Windows NT 10.0; Win64; x64) AppleWebKit/537.36 (KHTML, like Gecko) Chrome/117.0.0.0 Safari/537.36/7rpJ8CqK-00" etag="G3d4OPOAdRxAMMp4u7YS" version="22.0.4" type="device">
  <diagram name="Page-1" id="rqhgyVwYAi1fheEP8aTB">
    <mxGraphModel dx="614" dy="273" grid="1" gridSize="10" guides="1" tooltips="1" connect="1" arrows="1" fold="1" page="1" pageScale="1" pageWidth="827" pageHeight="1169" math="0" shadow="0">
      <root>
        <mxCell id="0" />
        <mxCell id="1" parent="0" />
        <mxCell id="a_KirFilaEnlQV9zpfoU-9" value="" style="group" parent="1" vertex="1" connectable="0">
          <mxGeometry x="30" y="280" width="90" height="130" as="geometry" />
        </mxCell>
        <mxCell id="a_KirFilaEnlQV9zpfoU-1" value="" style="endArrow=classic;html=1;rounded=0;" parent="a_KirFilaEnlQV9zpfoU-9" edge="1">
          <mxGeometry width="50" height="50" relative="1" as="geometry">
            <mxPoint x="10" y="80" as="sourcePoint" />
            <mxPoint x="10" as="targetPoint" />
          </mxGeometry>
        </mxCell>
        <mxCell id="a_KirFilaEnlQV9zpfoU-2" value="" style="endArrow=classic;html=1;rounded=0;" parent="a_KirFilaEnlQV9zpfoU-9" edge="1">
          <mxGeometry width="50" height="50" relative="1" as="geometry">
            <mxPoint x="10" y="80" as="sourcePoint" />
            <mxPoint x="90" y="80" as="targetPoint" />
          </mxGeometry>
        </mxCell>
        <mxCell id="a_KirFilaEnlQV9zpfoU-3" value="" style="endArrow=classic;html=1;rounded=0;" parent="a_KirFilaEnlQV9zpfoU-9" edge="1">
          <mxGeometry width="50" height="50" relative="1" as="geometry">
            <mxPoint x="10" y="80" as="sourcePoint" />
            <mxPoint x="30" y="130" as="targetPoint" />
          </mxGeometry>
        </mxCell>
        <mxCell id="a_KirFilaEnlQV9zpfoU-6" value="z" style="text;html=1;align=center;verticalAlign=middle;resizable=0;points=[];autosize=1;strokeColor=none;fillColor=none;" parent="a_KirFilaEnlQV9zpfoU-9" vertex="1">
          <mxGeometry y="10" width="30" height="30" as="geometry" />
        </mxCell>
        <mxCell id="a_KirFilaEnlQV9zpfoU-7" value="x" style="text;html=1;align=center;verticalAlign=middle;resizable=0;points=[];autosize=1;strokeColor=none;fillColor=none;" parent="a_KirFilaEnlQV9zpfoU-9" vertex="1">
          <mxGeometry x="60" y="50" width="30" height="30" as="geometry" />
        </mxCell>
        <mxCell id="a_KirFilaEnlQV9zpfoU-8" value="y" style="text;html=1;align=center;verticalAlign=middle;resizable=0;points=[];autosize=1;strokeColor=none;fillColor=none;" parent="a_KirFilaEnlQV9zpfoU-9" vertex="1">
          <mxGeometry x="30" y="100" width="30" height="30" as="geometry" />
        </mxCell>
        <mxCell id="h1a7Yx2JzGu34bNpwtZr-10" value="" style="group" vertex="1" connectable="0" parent="1">
          <mxGeometry x="90" y="180" width="215" height="270" as="geometry" />
        </mxCell>
        <mxCell id="h1a7Yx2JzGu34bNpwtZr-11" value="" style="group" vertex="1" connectable="0" parent="h1a7Yx2JzGu34bNpwtZr-10">
          <mxGeometry y="60" width="210" height="210" as="geometry" />
        </mxCell>
        <mxCell id="a_KirFilaEnlQV9zpfoU-19" value="" style="group;rounded=0;glass=0;shadow=1;rotation=0;" parent="h1a7Yx2JzGu34bNpwtZr-11" vertex="1" connectable="0">
          <mxGeometry y="30" width="210" height="180" as="geometry" />
        </mxCell>
        <mxCell id="a_KirFilaEnlQV9zpfoU-44" value="" style="group" parent="a_KirFilaEnlQV9zpfoU-19" vertex="1" connectable="0">
          <mxGeometry x="50.18857419980601" y="-30.2284496124031" width="109.63142580019398" height="130.2325581395349" as="geometry" />
        </mxCell>
        <mxCell id="a_KirFilaEnlQV9zpfoU-13" value="" style="endArrow=none;html=1;rounded=0;" parent="a_KirFilaEnlQV9zpfoU-44" edge="1">
          <mxGeometry width="50" height="50" relative="1" as="geometry">
            <mxPoint x="28.289686388619472" y="6.201550387596899" as="sourcePoint" />
            <mxPoint x="112.23933074684776" y="18.604651162790695" as="targetPoint" />
            <Array as="points">
              <mxPoint x="45.26349822179116" y="6.201550387596899" />
              <mxPoint x="73.55318461041063" />
            </Array>
          </mxGeometry>
        </mxCell>
        <mxCell id="a_KirFilaEnlQV9zpfoU-14" value="" style="endArrow=none;html=1;rounded=0;" parent="a_KirFilaEnlQV9zpfoU-44" edge="1">
          <mxGeometry width="50" height="50" relative="1" as="geometry">
            <mxPoint x="-20.36857419980602" y="55.813953488372086" as="sourcePoint" />
            <mxPoint x="28.289686388619472" y="6.201550387596899" as="targetPoint" />
            <Array as="points">
              <mxPoint x="22.63174911089558" y="12.403100775193797" />
            </Array>
          </mxGeometry>
        </mxCell>
        <mxCell id="a_KirFilaEnlQV9zpfoU-15" value="" style="endArrow=none;html=1;rounded=0;" parent="a_KirFilaEnlQV9zpfoU-44" edge="1">
          <mxGeometry width="50" height="50" relative="1" as="geometry">
            <mxPoint x="39.60556094406726" y="124.03100775193798" as="sourcePoint" />
            <mxPoint x="-20.36857419980602" y="55.813953488372086" as="targetPoint" />
            <Array as="points">
              <mxPoint x="16.973811833171684" y="86.82170542635659" />
            </Array>
          </mxGeometry>
        </mxCell>
        <mxCell id="a_KirFilaEnlQV9zpfoU-16" value="" style="endArrow=none;html=1;rounded=0;" parent="a_KirFilaEnlQV9zpfoU-44" edge="1">
          <mxGeometry width="50" height="50" relative="1" as="geometry">
            <mxPoint x="39.60556094406726" y="124.03100775193798" as="sourcePoint" />
            <mxPoint x="103.39880375040416" y="130.2325581395349" as="targetPoint" />
          </mxGeometry>
        </mxCell>
        <mxCell id="a_KirFilaEnlQV9zpfoU-17" value="" style="endArrow=none;html=1;rounded=0;" parent="a_KirFilaEnlQV9zpfoU-44" edge="1">
          <mxGeometry width="50" height="50" relative="1" as="geometry">
            <mxPoint x="121.07985774329136" y="68.21705426356588" as="sourcePoint" />
            <mxPoint x="112.23933074684776" y="18.604651162790695" as="targetPoint" />
            <Array as="points">
              <mxPoint x="107.50080827675399" y="31.007751937984494" />
            </Array>
          </mxGeometry>
        </mxCell>
        <mxCell id="a_KirFilaEnlQV9zpfoU-18" value="" style="endArrow=none;html=1;rounded=0;" parent="a_KirFilaEnlQV9zpfoU-44" edge="1">
          <mxGeometry width="50" height="50" relative="1" as="geometry">
            <mxPoint x="103.39880375040416" y="130.2325581395349" as="sourcePoint" />
            <mxPoint x="121.07985774329136" y="68.21705426356588" as="targetPoint" />
            <Array as="points">
              <mxPoint x="96.18493372130621" y="93.02325581395348" />
            </Array>
          </mxGeometry>
        </mxCell>
        <mxCell id="a_KirFilaEnlQV9zpfoU-34" value="" style="group" parent="a_KirFilaEnlQV9zpfoU-44" vertex="1" connectable="0">
          <mxGeometry x="50.923188667651836" y="12.403370407819345" width="20.754756815017203" height="12.44304634934901" as="geometry" />
        </mxCell>
        <mxCell id="a_KirFilaEnlQV9zpfoU-28" value="" style="endArrow=none;html=1;rounded=0;" parent="a_KirFilaEnlQV9zpfoU-34" edge="1">
          <mxGeometry width="50" height="50" relative="1" as="geometry">
            <mxPoint y="9.332284762011756" as="sourcePoint" />
            <mxPoint x="7.394773741543426" y="4.101596759600229" as="targetPoint" />
          </mxGeometry>
        </mxCell>
        <mxCell id="a_KirFilaEnlQV9zpfoU-29" value="" style="endArrow=none;html=1;rounded=0;" parent="a_KirFilaEnlQV9zpfoU-34" edge="1">
          <mxGeometry width="50" height="50" relative="1" as="geometry">
            <mxPoint x="20.754756815017203" as="sourcePoint" />
            <mxPoint x="7.394773741543426" y="4.101596759600229" as="targetPoint" />
          </mxGeometry>
        </mxCell>
        <mxCell id="a_KirFilaEnlQV9zpfoU-30" value="" style="endArrow=none;html=1;rounded=0;" parent="a_KirFilaEnlQV9zpfoU-34" edge="1">
          <mxGeometry width="50" height="50" relative="1" as="geometry">
            <mxPoint x="20.754756815017203" as="sourcePoint" />
            <mxPoint x="16.603805452013763" y="9.332284762011756" as="targetPoint" />
          </mxGeometry>
        </mxCell>
        <mxCell id="a_KirFilaEnlQV9zpfoU-31" value="" style="endArrow=none;html=1;rounded=0;" parent="a_KirFilaEnlQV9zpfoU-34" edge="1">
          <mxGeometry width="50" height="50" relative="1" as="geometry">
            <mxPoint x="8.301902726006883" y="12.44304634934901" as="sourcePoint" />
            <mxPoint y="9.332284762011756" as="targetPoint" />
          </mxGeometry>
        </mxCell>
        <mxCell id="a_KirFilaEnlQV9zpfoU-32" value="" style="endArrow=none;html=1;rounded=0;" parent="a_KirFilaEnlQV9zpfoU-34" edge="1">
          <mxGeometry width="50" height="50" relative="1" as="geometry">
            <mxPoint x="8.301902726006883" y="12.44304634934901" as="sourcePoint" />
            <mxPoint x="16.603805452013763" y="9.332284762011756" as="targetPoint" />
          </mxGeometry>
        </mxCell>
        <mxCell id="a_KirFilaEnlQV9zpfoU-26" value="" style="group" parent="a_KirFilaEnlQV9zpfoU-44" vertex="1" connectable="0">
          <mxGeometry y="31.007751937984494" width="24.621425800194004" height="30.000697674418603" as="geometry" />
        </mxCell>
        <mxCell id="a_KirFilaEnlQV9zpfoU-20" value="" style="endArrow=none;html=1;rounded=0;" parent="a_KirFilaEnlQV9zpfoU-26" edge="1">
          <mxGeometry width="50" height="50" relative="1" as="geometry">
            <mxPoint y="20.671834625322997" as="sourcePoint" />
            <mxPoint x="19.23698674426124" as="targetPoint" />
          </mxGeometry>
        </mxCell>
        <mxCell id="a_KirFilaEnlQV9zpfoU-21" value="" style="endArrow=none;html=1;rounded=0;" parent="a_KirFilaEnlQV9zpfoU-26" edge="1">
          <mxGeometry width="50" height="50" relative="1" as="geometry">
            <mxPoint x="19.23698674426124" y="8.2687338501292" as="sourcePoint" />
            <mxPoint x="19.23698674426124" as="targetPoint" />
          </mxGeometry>
        </mxCell>
        <mxCell id="a_KirFilaEnlQV9zpfoU-22" value="" style="endArrow=none;html=1;rounded=0;" parent="a_KirFilaEnlQV9zpfoU-26" edge="1">
          <mxGeometry width="50" height="50" relative="1" as="geometry">
            <mxPoint x="19.23698674426124" y="8.2687338501292" as="sourcePoint" />
            <mxPoint x="15.38958939540899" y="20.671834625322997" as="targetPoint" />
          </mxGeometry>
        </mxCell>
        <mxCell id="a_KirFilaEnlQV9zpfoU-23" value="" style="endArrow=none;html=1;rounded=0;" parent="a_KirFilaEnlQV9zpfoU-26" edge="1">
          <mxGeometry width="50" height="50" relative="1" as="geometry">
            <mxPoint x="7.694794697704495" y="24.806201550387595" as="sourcePoint" />
            <mxPoint y="20.671834625322997" as="targetPoint" />
          </mxGeometry>
        </mxCell>
        <mxCell id="a_KirFilaEnlQV9zpfoU-24" value="" style="endArrow=none;html=1;rounded=0;" parent="a_KirFilaEnlQV9zpfoU-26" edge="1">
          <mxGeometry width="50" height="50" relative="1" as="geometry">
            <mxPoint x="7.694794697704495" y="24.806201550387595" as="sourcePoint" />
            <mxPoint x="15.38958939540899" y="20.671834625322997" as="targetPoint" />
          </mxGeometry>
        </mxCell>
        <mxCell id="h1a7Yx2JzGu34bNpwtZr-5" value="&lt;font style=&quot;font-size: 8px;&quot;&gt;O1&lt;/font&gt;" style="text;html=1;align=center;verticalAlign=middle;resizable=0;points=[];autosize=1;strokeColor=none;fillColor=none;" vertex="1" parent="a_KirFilaEnlQV9zpfoU-26">
          <mxGeometry x="-5.378574199805996" y="0.0006976744186033557" width="30" height="30" as="geometry" />
        </mxCell>
        <mxCell id="a_KirFilaEnlQV9zpfoU-42" value="" style="endArrow=none;html=1;rounded=0;" parent="a_KirFilaEnlQV9zpfoU-44" edge="1">
          <mxGeometry width="50" height="50" relative="1" as="geometry">
            <mxPoint x="62.23731005496284" y="74.41860465116278" as="sourcePoint" />
            <mxPoint x="62.23731005496284" y="74.41860465116278" as="targetPoint" />
            <Array as="points">
              <mxPoint x="56.579372777238945" y="86.82170542635659" />
              <mxPoint x="45.26349822179116" y="86.82170542635659" />
              <mxPoint x="33.94762366634337" y="80.62015503875968" />
              <mxPoint x="28.289686388619472" y="55.813953488372086" />
              <mxPoint x="50.92143549951505" y="43.41085271317829" />
              <mxPoint x="62.23731005496284" y="43.41085271317829" />
            </Array>
          </mxGeometry>
        </mxCell>
        <mxCell id="a_KirFilaEnlQV9zpfoU-41" value="" style="group" parent="a_KirFilaEnlQV9zpfoU-44" vertex="1" connectable="0">
          <mxGeometry x="79.21112188813451" y="43.41085271317829" width="28.289686388619472" height="31.007751937984494" as="geometry" />
        </mxCell>
        <mxCell id="a_KirFilaEnlQV9zpfoU-38" value="" style="endArrow=none;html=1;rounded=0;" parent="a_KirFilaEnlQV9zpfoU-41" edge="1">
          <mxGeometry width="50" height="50" relative="1" as="geometry">
            <mxPoint y="6.201550387596899" as="sourcePoint" />
            <mxPoint x="16.973811833171684" as="targetPoint" />
            <Array as="points">
              <mxPoint x="5.657937277723895" />
            </Array>
          </mxGeometry>
        </mxCell>
        <mxCell id="a_KirFilaEnlQV9zpfoU-39" value="" style="endArrow=none;html=1;rounded=0;" parent="a_KirFilaEnlQV9zpfoU-41" edge="1">
          <mxGeometry width="50" height="50" relative="1" as="geometry">
            <mxPoint y="6.201550387596899" as="sourcePoint" />
            <mxPoint x="16.973811833171684" as="targetPoint" />
            <Array as="points">
              <mxPoint y="18.604651162790695" />
              <mxPoint x="5.657937277723895" y="31.007751937984494" />
              <mxPoint x="16.973811833171684" y="24.806201550387595" />
              <mxPoint x="28.289686388619472" y="12.403100775193797" />
            </Array>
          </mxGeometry>
        </mxCell>
        <mxCell id="a_KirFilaEnlQV9zpfoU-43" value="" style="endArrow=none;html=1;rounded=0;" parent="a_KirFilaEnlQV9zpfoU-44" edge="1">
          <mxGeometry width="50" height="50" relative="1" as="geometry">
            <mxPoint x="79.21112188813451" y="99.22480620155038" as="sourcePoint" />
            <mxPoint x="79.21112188813451" y="99.22480620155038" as="targetPoint" />
            <Array as="points">
              <mxPoint x="67.89524733268674" y="93.02325581395348" />
              <mxPoint x="56.579372777238945" y="99.22480620155038" />
              <mxPoint x="56.579372777238945" y="105.42635658914728" />
              <mxPoint x="62.23731005496284" y="111.62790697674417" />
              <mxPoint x="67.89524733268674" y="117.8294573643411" />
              <mxPoint x="79.21112188813451" y="111.62790697674417" />
            </Array>
          </mxGeometry>
        </mxCell>
        <mxCell id="h1a7Yx2JzGu34bNpwtZr-6" value="&lt;font style=&quot;font-size: 8px;&quot;&gt;O2&lt;/font&gt;" style="text;html=1;align=center;verticalAlign=middle;resizable=0;points=[];autosize=1;strokeColor=none;fillColor=none;" vertex="1" parent="a_KirFilaEnlQV9zpfoU-44">
          <mxGeometry x="64.63142580019398" y="1.0084496124030977" width="30" height="30" as="geometry" />
        </mxCell>
        <mxCell id="h1a7Yx2JzGu34bNpwtZr-7" value="&lt;font style=&quot;font-size: 8px;&quot;&gt;O3&lt;/font&gt;" style="text;html=1;align=center;verticalAlign=middle;resizable=0;points=[];autosize=1;strokeColor=none;fillColor=none;" vertex="1" parent="a_KirFilaEnlQV9zpfoU-44">
          <mxGeometry x="34.63142580019398" y="50.11844961240308" width="30" height="30" as="geometry" />
        </mxCell>
        <mxCell id="h1a7Yx2JzGu34bNpwtZr-8" value="&lt;font style=&quot;font-size: 8px;&quot;&gt;O4&lt;/font&gt;" style="text;html=1;align=center;verticalAlign=middle;resizable=0;points=[];autosize=1;strokeColor=none;fillColor=none;" vertex="1" parent="a_KirFilaEnlQV9zpfoU-44">
          <mxGeometry x="74.63142580019398" y="41.79844961240309" width="30" height="30" as="geometry" />
        </mxCell>
        <mxCell id="h1a7Yx2JzGu34bNpwtZr-9" value="&lt;font style=&quot;font-size: 8px;&quot;&gt;O5&lt;/font&gt;" style="text;html=1;align=center;verticalAlign=middle;resizable=0;points=[];autosize=1;strokeColor=none;fillColor=none;" vertex="1" parent="a_KirFilaEnlQV9zpfoU-44">
          <mxGeometry x="55.92142580019399" y="93.79844961240306" width="30" height="30" as="geometry" />
        </mxCell>
        <mxCell id="h1a7Yx2JzGu34bNpwtZr-4" value="O_main" style="text;html=1;align=center;verticalAlign=middle;resizable=0;points=[];autosize=1;strokeColor=none;fillColor=none;" vertex="1" parent="h1a7Yx2JzGu34bNpwtZr-11">
          <mxGeometry width="70" height="30" as="geometry" />
        </mxCell>
      </root>
    </mxGraphModel>
  </diagram>
</mxfile>
